<svg id="visual" viewBox="0 0 960 540" width="960" height="540" xmlns="http://www.w3.org/2000/svg" xmlns:xlink="http://www.w3.org/1999/xlink" version="1.1"><path d="M0 39L480 50L960 12L960 0L480 0L0 0Z" fill="#cffafe"></path><path d="M0 120L480 120L960 77L960 10L480 48L0 37Z" fill="#abf0f8"></path><path d="M0 244L480 309L960 158L960 75L480 118L0 118Z" fill="#83e6f3"></path><path d="M0 303L480 384L960 212L960 156L480 307L0 242Z" fill="#4ddbef"></path><path d="M0 347L480 390L960 255L960 210L480 382L0 301Z" fill="#3dd9ee"></path><path d="M0 363L480 390L960 298L960 253L480 388L0 345Z" fill="#4ddbef"></path><path d="M0 390L480 438L960 357L960 296L480 388L0 361Z" fill="#83e6f3"></path><path d="M0 536L480 519L960 482L960 355L480 436L0 388Z" fill="#abf0f8"></path><path d="M0 541L480 541L960 541L960 480L480 517L0 534Z" fill="#cffafe"></path></svg>